<?xml version="1.0" standalone="no"?>
<!DOCTYPE svg PUBLIC "-//W3C//DTD SVG 20010904//EN"
 "http://www.w3.org/TR/2001/REC-SVG-20010904/DTD/svg10.dtd">
<svg version="1.0" xmlns="http://www.w3.org/2000/svg"
 width="48.000000pt" height="48.000000pt" viewBox="0 0 48.000000 48.000000"
 preserveAspectRatio="xMidYMid meet">

<g transform="translate(0.000000,48.000000) scale(0.100000,-0.100000)"
fill="#000000" stroke="none">
<path d="M203 358 c-27 -13 -48 -61 -38 -85 7 -16 8 -17 12 -1 6 23 91 52 110
37 7 -6 13 -20 13 -31 0 -10 5 -16 10 -13 19 11 10 45 -19 75 -29 31 -51 36
-88 18z"/>
<path d="M200 260 c0 -5 5 -10 10 -10 6 0 10 5 10 10 0 6 -4 10 -10 10 -5 0
-10 -4 -10 -10z"/>
<path d="M260 260 c0 -5 5 -10 10 -10 6 0 10 5 10 10 0 6 -4 10 -10 10 -5 0
-10 -4 -10 -10z"/>
<path d="M173 159 c-25 -9 -49 -42 -58 -81 l-7 -28 132 0 132 0 -7 27 c-9 40
-33 73 -58 82 -18 7 -25 3 -39 -23 -15 -28 -17 -29 -18 -8 0 12 -4 22 -10 22
-5 0 -10 -10 -10 -22 -1 -21 -3 -20 -18 8 -14 26 -21 30 -39 23z"/>
</g>
</svg>
