<?xml version="1.0" standalone="no"?>
<!DOCTYPE svg PUBLIC "-//W3C//DTD SVG 20010904//EN"
 "http://www.w3.org/TR/2001/REC-SVG-20010904/DTD/svg10.dtd">
<svg version="1.0" xmlns="http://www.w3.org/2000/svg"
 width="300.000000pt" height="261.000000pt" viewBox="0 0 300.000000 261.000000"
 preserveAspectRatio="xMidYMid meet">

<g transform="translate(0.000000,261.000000) scale(0.100000,-0.100000)"
fill="#000000" stroke="none">
<path d="M0 2240 l0 -370 83 0 82 0 -3 285 -3 285 486 0 485 0 0 85 0 85 -565
0 -565 0 0 -370z"/>
<path d="M1870 2525 l0 -85 485 0 486 0 -3 -285 -3 -285 83 0 82 0 0 370 0
370 -565 0 -565 0 0 -85z"/>
<path d="M1130 1305 l0 -565 370 0 370 0 0 75 0 75 -285 2 -286 3 -2 485 -2
485 -82 3 -83 3 0 -566z"/>
<path d="M0 370 l0 -370 565 0 565 0 0 85 0 85 -485 0 -486 0 3 285 3 285 -82
0 -83 0 0 -370z"/>
<path d="M2838 455 l3 -285 -486 0 -485 0 0 -85 0 -85 565 0 565 0 0 370 0
370 -82 0 -83 0 3 -285z"/>
</g>
</svg>
